<?xml version="1.0" standalone="no"?>
<!DOCTYPE svg PUBLIC "-//W3C//DTD SVG 20010904//EN"
 "http://www.w3.org/TR/2001/REC-SVG-20010904/DTD/svg10.dtd">
<svg version="1.0" xmlns="http://www.w3.org/2000/svg"
 width="824.000000pt" height="205.000000pt" viewBox="0 0 824.000000 205.000000"
 preserveAspectRatio="xMidYMid meet">
<g transform="translate(0.000000,205.000000) scale(0.100000,-0.100000)"
fill="#006699" stroke="none">
<path d="M3430 1610 l0 -90 95 0 95 0 0 90 0 90 -95 0 -95 0 0 -90z"/>
<path d="M477 1610 c-89 -22 -151 -72 -186 -150 -20 -43 -21 -64 -21 -492 l0
-448 95 0 95 0 0 424 c0 413 0 424 21 450 l20 26 273 0 c267 0 274 -1 306 -22
64 -44 75 -69 78 -183 4 -118 -5 -147 -65 -192 l-36 -28 -259 -3 -258 -3 0
-99 0 -100 238 0 c327 0 395 18 495 130 67 74 82 127 82 285 -1 111 -4 138
-24 187 -31 81 -104 158 -183 194 l-63 29 -285 2 c-157 1 -302 -2 -323 -7z"/>
<path d="M6010 1485 l0 -135 -130 0 -130 0 0 -100 0 -100 130 0 130 0 0 -315
0 -315 100 0 100 0 0 315 0 315 170 0 170 0 0 100 0 100 -170 0 -170 0 0 135
0 135 -100 0 -100 0 0 -135z"/>
<path d="M6915 1610 c-88 -22 -151 -74 -186 -153 -24 -51 -24 -56 -24 -392 0
-305 2 -344 18 -378 27 -58 82 -112 140 -138 51 -24 56 -24 445 -27 l392 -3 0
100 0 101 -378 0 -379 0 -21 23 c-22 23 -22 29 -22 330 0 294 1 308 20 327 19
19 33 20 400 20 l380 0 0 100 0 100 -377 -1 c-208 -1 -391 -5 -408 -9z"/>
<path d="M1695 1336 c-64 -20 -99 -42 -138 -85 -61 -68 -67 -105 -67 -438 l0
-293 100 0 100 0 0 295 c0 282 1 296 20 315 19 19 33 20 265 20 l245 0 0 100
0 100 -242 -1 c-167 0 -256 -4 -283 -13z"/>
<path d="M2540 1337 c-95 -26 -164 -94 -189 -182 -14 -51 -14 -383 0 -438 17
-68 69 -131 136 -163 l58 -29 250 0 250 0 57 28 c67 33 112 82 134 149 13 39
15 86 12 250 -3 191 -4 206 -27 248 -32 62 -57 87 -116 118 -50 27 -52 27
-285 29 -165 2 -248 -1 -280 -10z m499 -213 c19 -25 21 -40 21 -189 0 -149 -2
-164 -21 -189 l-20 -26 -219 0 c-288 0 -265 -18 -265 215 0 233 -23 215 265
215 l219 0 20 -26z"/>
<path d="M3430 881 c0 -459 0 -469 -21 -495 l-20 -26 -200 0 -199 0 0 -101 0
-101 213 4 c189 3 217 5 257 24 61 28 107 68 133 118 22 40 22 47 25 544 l3
502 -96 0 -95 0 0 -469z"/>
<path d="M4015 1341 c-45 -12 -107 -46 -131 -73 -12 -12 -32 -43 -45 -68 -23
-43 -24 -53 -24 -271 l0 -226 30 -49 c37 -59 107 -108 175 -123 28 -6 134 -11
235 -11 l185 0 0 95 0 95 -194 0 c-192 0 -195 0 -223 24 l-28 24 0 175 c0 172
0 176 24 201 l24 26 217 0 c203 0 218 -1 238 -20 12 -11 25 -32 28 -45 8 -31
-12 -82 -37 -95 -10 -6 -106 -10 -213 -10 l-196 0 0 -96 0 -96 218 4 c204 3
220 4 264 26 94 46 148 141 148 256 0 108 -55 192 -155 238 -47 22 -63 23
-280 25 -126 1 -243 -2 -260 -6z"/>
<path d="M5003 1331 c-74 -25 -117 -63 -150 -128 -27 -56 -28 -63 -31 -243 -2
-113 1 -205 8 -235 16 -74 67 -137 137 -171 l58 -29 303 -3 302 -3 0 100 0
101 -284 0 c-265 0 -285 1 -307 19 -24 19 -24 22 -24 196 0 174 0 177 24 196
22 18 42 19 307 19 l284 0 0 100 0 100 -287 0 c-250 -1 -295 -3 -340 -19z"/>
</g>
</svg>
